Coordinates
version=1
nRows=7
nColumns=32
inDegrees=yes

Units are S.I. units (second, meters, Newtons, ...)
If the header above contains a line with 'inDegrees', this indicates whether rotational values are in degrees (yes) or radians (no).

endheader
time	pelvis_tilt	pelvis_list	pelvis_rotation	pelvis_tx	pelvis_ty	pelvis_tz	hip_flexion_r	hip_adduction_r	hip_rotation_r	knee_angle_r	knee_adduction_r	med_cond_adduction_r	lat_cond_adduction_r	patella_r_constrained_knee_angle	hip_flexion_l	hip_adduction_l	hip_rotation_l	knee_angle_l	knee_adduction_l	med_cond_adduction_l	lat_cond_adduction_l	patella_l_constrained_knee_angle	lumbar_extension	lumbar_bending	lumbar_rotation	ankle_angle_r	subtalar_angle_r	mtp_angle_r	ankle_angle_l	subtalar_angle_l	mtp_angle_l
      0.74000000	     -8.90579642	      0.90820475	      0.75742327	     -0.93949277	      0.86739779	     -0.21779790	     32.39149617	     -6.18007197	      1.50529908	    -59.54490284	      7.82519361	      0.00000000	      0.00000000	     -1.03925461	     22.48900821	      5.57411633	      3.89338565	    -20.78348003	      0.97492787	      0.00000000	      0.00000000	     -0.36274016	    -10.67235617	     -1.56628065	      3.45029517	     -5.48409985	     -6.03329605	     -0.00000000	      8.14584759	     12.91256278	     -0.00000000
      0.74500000	     -8.90464988	      0.80600634	      0.99480458	     -0.93305701	      0.86779199	     -0.21790604	     32.96523849	     -6.25787452	      1.27391501	    -58.87295017	      7.86603690	     -0.00000000	     -0.00000000	     -1.02752682	     21.87103964	      5.52334278	      3.98463923	    -20.56414450	      0.93035401	     -0.00000000	     -0.00000000	     -0.35891203	    -10.73036319	     -1.44976286	      3.30512625	     -4.98004291	     -6.35556363	     -0.00000000	      8.40657376	     13.10251033	     -0.00000000
      0.75000000	     -8.91371726	      0.67556265	      1.22101279	     -0.92657605	      0.86815368	     -0.21797450	     33.49219341	     -6.27976408	      1.08748826	    -58.04898280	      7.93011671	      0.00000000	      0.00000000	     -1.01314588	     21.24433697	      5.42045695	      4.06509970	    -20.34206078	      0.87978973	     -0.00000000	     -0.00000000	     -0.35503594	    -10.75498857	     -1.30749145	      3.12171620	     -4.51768792	     -6.63775984	     -0.00000000	      8.70511740	     13.27210941	     -0.00000000
      0.75500000	     -8.92950096	      0.54247374	      1.41014759	     -0.92010238	      0.86844324	     -0.21796443	     34.00018699	     -6.27684001	      0.99750266	    -57.14743131	      8.04967924	     -0.00000000	     -0.00000000	     -0.99741084	     20.61142365	      5.29878690	      4.00898043	    -20.07706699	      0.78009657	     -0.00000000	     -0.00000000	     -0.35041092	    -10.75407340	     -1.12703438	      2.96512178	     -4.09115166	     -6.83059290	     -0.00000000	      8.94040678	     13.32999399	     -0.00000000
      0.76000000	     -8.91629317	      0.54175977	      1.69352713	     -0.91366499	      0.86863635	     -0.21796121	     34.49872765	     -6.46864007	      0.72975957	    -56.32061007	      8.05897022	      0.00000000	      0.00000000	     -0.98298008	     19.90218256	      5.31825788	      4.25125597	    -19.76912664	      0.82102852	     -0.00000000	     -0.00000000	     -0.34503635	    -10.84323018	     -1.22332462	      2.72901093	     -3.50989244	     -7.31854972	     -0.00000000	      9.46514237	     13.63915374	      0.00000000
      0.76500000	     -8.93584357	      0.48502186	      1.93702156	     -0.90720721	      0.86874974	     -0.21792182	     34.97217163	     -6.56098380	      0.61989284	    -55.33673842	      8.15623235	     -0.00000000	     -0.00000000	     -0.96580828	     19.23581666	      5.28815082	      4.34446225	    -19.47675609	      0.75228649	      0.00000000	      0.00000000	     -0.33993352	    -10.85947408	     -1.21637926	      2.47384850	     -3.01116561	     -7.82116695	      0.00000000	     10.02125265	     13.99006534	      0.00000000
      0.77000000	     -8.95204387	      0.40656119	      2.17448620	     -0.90069275	      0.86883572	     -0.21784575	     35.37590554	     -6.60341276	      0.51443967	    -54.19747779	      8.22796806	      0.00000000	      0.00000000	     -0.94592443	     18.56923378	      5.20694266	      4.33366579	    -19.17876062	      0.67352820	     -0.00000000	     -0.00000000	     -0.33473252	    -10.87132361	     -1.16263395	      2.23601671	     -2.65565349	     -8.34097294	      0.00000000	     10.50646566	     14.32808255	     -0.00000000
